<svg width="24" height="24" viewBox="0 0 24 24" fill="none" xmlns="http://www.w3.org/2000/svg">
<g id="PinterestLogo">
<path id="Vector" d="M11.25 8.25L8.25 21" stroke="#BCEFFB" stroke-width="1.5" stroke-linecap="round" stroke-linejoin="round"/>
<path id="Vector_2" d="M5.76972 14.6769C5.11728 13.7037 4.70192 12.5912 4.55692 11.4285C4.41193 10.2658 4.54133 9.08539 4.93477 7.98177C5.32821 6.87814 5.97473 5.88203 6.82251 5.07329C7.67029 4.26456 8.69575 3.66569 9.81669 3.32469C10.9376 2.98368 12.1229 2.91004 13.2774 3.10965C14.4319 3.30926 15.5236 3.77658 16.465 4.47415C17.4064 5.17171 18.1713 6.08012 18.6983 7.12655C19.2253 8.17299 19.4999 9.32834 19.4999 10.5C19.4999 14.6421 16.4999 17.25 13.4999 17.25C10.4999 17.25 9.59696 15.275 9.59696 15.275" stroke="#BCEFFB" stroke-width="1.5" stroke-linecap="round" stroke-linejoin="round"/>
</g>
</svg>
